<mxfile host="65bd71144e">
    <diagram id="8ns63juBduFtukD101pN" name="ページ1">
        <mxGraphModel dx="1043" dy="545" grid="1" gridSize="10" guides="1" tooltips="1" connect="0" arrows="0" fold="1" page="1" pageScale="1" pageWidth="827" pageHeight="1169" math="0" shadow="0">
            <root>
                <mxCell id="0"/>
                <mxCell id="1" parent="0"/>
                <mxCell id="2" value="" style="whiteSpace=wrap;html=1;rounded=1;fillColor=#FFFFFF;strokeColor=#9999FF;" parent="1" vertex="1">
                    <mxGeometry x="20" y="20" width="320" height="320" as="geometry"/>
                </mxCell>
                <mxCell id="585" value="" style="whiteSpace=wrap;html=1;rounded=1;fillColor=#7E57C2;strokeColor=none;" parent="1" vertex="1">
                    <mxGeometry x="80" y="60" width="200" height="50" as="geometry"/>
                </mxCell>
                <mxCell id="586" value="" style="whiteSpace=wrap;html=1;rounded=1;fillColor=#7E57C2;strokeColor=none;" parent="1" vertex="1">
                    <mxGeometry x="230" y="100" width="50" height="195" as="geometry"/>
                </mxCell>
                <mxCell id="588" value="" style="whiteSpace=wrap;html=1;rounded=1;fillColor=#7E57C2;strokeColor=none;" parent="1" vertex="1">
                    <mxGeometry x="80" y="250" width="200" height="50" as="geometry"/>
                </mxCell>
            </root>
        </mxGraphModel>
    </diagram>
</mxfile>